<svg xmlns="http://www.w3.org/2000/svg" viewBox="0 0 24 24" fill="white">
  <!-- Mystical scroll with runes -->
  <path d="M20 4H4c-1.1 0-2 .9-2 2v12c0 1.1.9 2 2 2h16c1.1 0 2-.9 2-2V6c0-1.1-.9-2-2-2z"/>
  <path d="M4 4v2c.55 0 1-.45 1-1s-.45-1-1-1zM4 18v2c.55 0 1-.45 1-1s-.45-1-1-1zM20 4v2c-.55 0-1-.45-1-1s.45-1 1-1zM20 18v2c-.55 0-1-.45-1-1s.45-1 1-1z" fill="none" stroke="white" stroke-width="0.5"/>
  <!-- Rune symbols -->
  <path d="M8 9h2v6H8zM11 9h2v6h-2zM14 9h2v6h-2z" fill="black" opacity="0.3"/>
  <circle cx="12" cy="12" r="1.5" fill="black" opacity="0.5"/>
</svg>
